<svg width="14" height="14" viewBox="0 0 14 14" fill="none" xmlns="http://www.w3.org/2000/svg">
<g clip-path="url(#clip0_2002_2)">
<path d="M12.6576 7.41168C12.7657 7.36662 12.8355 7.34662 12.8997 7.28246C12.9639 7.2183 13 7.13129 13 7.04056C13 6.94983 12.9639 6.86281 12.8997 6.79865C12.8355 6.7345 12.8139 6.69606 12.6576 6.65024C12.5014 6.60443 4.90652 4.03689 4.90652 4.03689C4.78532 3.99542 4.65491 3.98877 4.53011 4.01767C4.40532 4.04658 4.29114 4.10988 4.20055 4.2004C4.10997 4.29092 4.04661 4.40501 4.01768 4.52971C3.98876 4.65441 3.99542 4.78472 4.03692 4.90583C4.03692 4.90583 6.66518 12.5539 6.69729 12.6579C6.72939 12.7619 6.77081 12.8356 6.83502 12.8998C6.89922 12.964 6.98631 13 7.07711 13C7.16791 13 7.25499 12.964 7.31919 12.8998C7.3834 12.8356 7.39807 12.7993 7.44621 12.6579C7.49434 12.5165 8.78893 8.78528 8.78893 8.78528C8.78893 8.78528 12.5496 7.45674 12.6576 7.41168Z" fill="black" stroke="#000001" stroke-linecap="round" stroke-linejoin="round"/>
<path d="M5 1V2.5" stroke="black" stroke-linecap="round"/>
<path d="M2 2L3.06066 3.06066" stroke="black" stroke-linecap="round"/>
<path d="M1 5L2.5 5" stroke="black" stroke-linecap="round"/>
</g>
<defs>
<clipPath id="clip0_2002_2">
<rect width="14" height="14" fill="white"/>
</clipPath>
</defs>
</svg>
