<svg width="24" height="24" viewBox="0 0 32 32" fill="none" xmlns="http://www.w3.org/2000/svg">
<g filter="url(#filter0_d_16837_160)">
<path fill-rule="evenodd" clip-rule="evenodd" d="M14 7.7639C14.5308 7.28885 15.2316 7 16 7C17.0623 7 17.9956 7.5521 18.5286 8.38499C18.9634 8.13986 19.4653 8 20 8C20.8913 8 21.6917 8.38865 22.2412 9.00572C24.8906 9.13156 27 11.3194 27 14V16.3444C27 18.2587 26.5004 20.1398 25.5507 21.8019L23.732 24.9846C23.0198 26.2309 21.6945 27 20.259 27H12.5439C11.252 27 10.0398 26.3761 9.28892 25.325L6.30387 21.1459C5.45586 19.9587 5 18.5362 5 17.0772V14C5 11.5297 6.79146 9.47781 9.14608 9.07263C9.53671 7.86965 10.6668 7 12 7C12.7684 7 13.4692 7.28885 14 7.7639Z" fill="white"/>
</g>
<path fill-rule="evenodd" clip-rule="evenodd" d="M14 7.7639C14.5308 7.28885 15.2316 7 16 7C17.0623 7 17.9956 7.5521 18.5286 8.38499C18.9634 8.13986 19.4653 8 20 8C20.8913 8 21.6917 8.38865 22.2412 9.00572C24.8906 9.13156 27 11.3194 27 14V16.3444C27 18.2587 26.5004 20.1398 25.5507 21.8019L23.732 24.9846C23.0198 26.2309 21.6945 27 20.259 27H12.5439C11.252 27 10.0398 26.3761 9.28892 25.325L6.30387 21.1459C5.45586 19.9587 5 18.5362 5 17.0772V14C5 11.5297 6.79146 9.47781 9.14608 9.07263C9.53671 7.86965 10.6668 7 12 7C12.7684 7 13.4692 7.28885 14 7.7639ZM13 10V11C13 11.5523 13.4477 12 14 12C14.5523 12 15 11.5523 15 11V10C15 9.44772 15.4477 9 16 9C16.5523 9 17 9.44772 17 10V11C17 11.5523 17.4477 12 18 12C18.5523 12 19 11.5523 19 11C19 10.4477 19.4477 10 20 10C20.5523 10 21 10.4477 21 11V12C21 12.5523 21.4477 13 22 13C22.5523 13 23 12.5523 23 12V11.1707C24.1652 11.5825 25 12.6938 25 14V16.3444C25 17.9106 24.5913 19.4497 23.8142 20.8096L21.9955 23.9923C21.6394 24.6154 20.9767 25 20.259 25H12.5439C11.898 25 11.2918 24.6881 10.9164 24.1625L7.93133 19.9834C7.32562 19.1354 7 18.1193 7 17.0772V14C7 12.6938 7.83481 11.5825 9 11.1707V15C9 15.5523 9.44772 16 10 16C10.5523 16 11 15.5523 11 15V10C11 9.44772 11.4477 9 12 9C12.5523 9 13 9.44772 13 10Z" fill="#12131A"/>
<defs>
<filter id="filter0_d_16837_160" x="2" y="5.5" width="28" height="26" filterUnits="userSpaceOnUse" color-interpolation-filters="sRGB">
<feFlood flood-opacity="0" result="BackgroundImageFix"/>
<feColorMatrix in="SourceAlpha" type="matrix" values="0 0 0 0 0 0 0 0 0 0 0 0 0 0 0 0 0 0 127 0" result="hardAlpha"/>
<feOffset dy="1.5"/>
<feGaussianBlur stdDeviation="1.5"/>
<feComposite in2="hardAlpha" operator="out"/>
<feColorMatrix type="matrix" values="0 0 0 0 0.0705882 0 0 0 0 0.0745098 0 0 0 0 0.101961 0 0 0 0.25 0"/>
<feBlend mode="normal" in2="BackgroundImageFix" result="effect1_dropShadow_16837_160"/>
<feBlend mode="normal" in="SourceGraphic" in2="effect1_dropShadow_16837_160" result="shape"/>
</filter>
</defs>
</svg>
