<svg width="14" height="14" viewBox="0 0 14 14" fill="none" xmlns="http://www.w3.org/2000/svg">
<path d="M8.20587 9.51456C8.27925 9.50497 8.32514 9.50433 8.37492 9.47583C8.42471 9.44734 8.46112 9.40024 8.47614 9.3449C8.49117 9.28956 8.48358 9.23051 8.45504 9.18075C8.42651 9.13099 8.41966 9.10395 8.33197 9.05014C8.24428 8.99633 4.0372 6.17262 4.0372 6.17262C3.97015 6.12726 3.89171 6.1016 3.81081 6.09857C3.72991 6.09553 3.64978 6.11523 3.57954 6.15544C3.50931 6.19564 3.45177 6.25474 3.41348 6.32601C3.37518 6.39728 3.35767 6.47786 3.36292 6.55859C3.36292 6.55859 3.69941 11.6585 3.70177 11.7273C3.70414 11.796 3.71718 11.8479 3.74572 11.8976C3.77425 11.9474 3.8214 11.9838 3.87678 11.9988C3.93216 12.0139 3.99124 12.0063 4.04103 11.9778C4.09081 11.9493 4.10578 11.9296 4.15855 11.8513C4.21132 11.773 5.61881 9.71168 5.61881 9.71168C5.61881 9.71168 8.1325 9.52414 8.20587 9.51456Z" fill="white" stroke="#000001" stroke-linecap="round" stroke-linejoin="round"/>
<path d="M12.7337 6.65353C12.8178 6.61849 12.8721 6.60292 12.922 6.55302C12.9719 6.50313 13 6.43545 13 6.36488C13 6.29431 12.9719 6.22663 12.922 6.17673C12.8721 6.12683 12.8552 6.09693 12.7337 6.0613C12.6122 6.02566 6.70507 4.02869 6.70507 4.02869C6.61081 3.99644 6.50938 3.99126 6.41231 4.01374C6.31525 4.03623 6.22644 4.08547 6.15598 4.15587C6.08553 4.22627 6.03625 4.31501 6.01375 4.412C5.99126 4.50899 5.99644 4.61034 6.02871 4.70454C6.02871 4.70454 8.07292 10.6531 8.09789 10.7339C8.12286 10.8148 8.15508 10.8722 8.20501 10.9221C8.25495 10.972 8.32268 11 8.39331 11C8.46393 11 8.53166 10.972 8.5816 10.9221C8.63153 10.8722 8.64295 10.8439 8.68038 10.7339C8.71782 10.6239 9.72472 7.72189 9.72472 7.72189C9.72472 7.72189 12.6497 6.68857 12.7337 6.65353Z" fill="black" stroke="#000001" stroke-linecap="round" stroke-linejoin="round"/>
<path d="M6 1V2.5" stroke="black" stroke-linecap="round"/>
<path d="M3 2L4.06066 3.06066" stroke="black" stroke-linecap="round"/>
<path d="M2 5L3.5 5" stroke="black" stroke-linecap="round"/>
<g opacity="0.3">
<path d="M5 3V4.5" stroke="black" stroke-linecap="round"/>
<path d="M2 4L3.06066 5.06066" stroke="black" stroke-linecap="round"/>
<path d="M1 7L2.5 7" stroke="black" stroke-linecap="round"/>
</g>
</svg>
