<svg width="520" height="520" viewBox="0 0 500 501" fill="none" xmlns="http://www.w3.org/2000/svg">
<path d="M380.013 356.429L324.988 267.896C315.515 252.655 302.003 240.338 285.952 232.312C255.836 217.255 220.069 218.877 191.44 236.6L187.729 238.897C172.206 248.506 159.61 262.182 151.307 278.44L107.469 364.277C98.02 382.778 97.6061 404.596 106.346 423.442C117.417 447.313 141.336 462.586 167.649 462.586H321.003C347.867 462.586 372.325 447.099 383.812 422.813C393.903 401.476 392.473 376.476 380.013 356.429Z" fill="black" stroke="black"/>
<path d="M375.29 125.897C370.558 171.553 341.753 194.193 315.998 191.524C290.243 188.854 264.574 160.568 269.306 114.912C274.038 69.2561 310.245 41.417 336 44.0863C361.755 46.7557 379.684 83.5034 375.29 125.897Z" fill="black"/>
<path d="M451.177 239.764C429.098 266.834 401.317 269.207 386.047 256.752C370.777 244.298 366.26 215.582 388.339 188.512C410.417 161.443 450.73 146.27 466 158.725C481.27 171.179 471.678 214.629 451.177 239.764Z" fill="black"/>
<path d="M228.019 126.11C237.299 165.654 217.472 193.475 192.895 199.242C168.319 205.009 136.163 189.387 126.884 149.843C117.604 110.299 134.714 61.8088 159.291 56.0415C183.867 50.2742 219.402 89.3918 228.019 126.11Z" fill="black"/>
<path d="M118.696 222.062C131.471 253.754 116.507 280.243 94.8052 288.991C73.1038 297.738 42.1663 289.751 29.392 258.059C16.6176 226.367 26.8438 182.972 48.5452 174.225C70.2466 165.477 106.835 192.635 118.696 222.062Z" fill="black"/>
</svg>
