<svg width="14" height="14" viewBox="0 0 14 14" fill="none" xmlns="http://www.w3.org/2000/svg">
<path d="M8.9004 6.33075C9.24264 6.40747 9.54584 6.62871 9.74783 6.9491C9.94982 7.26949 10.0353 7.66475 9.98668 8.05382L9.56993 11.3384C9.54673 11.5233 9.46463 11.6923 9.33893 11.814C9.21323 11.9357 9.05251 12.0018 8.88673 12H4.45961C4.32278 12.0001 4.18906 11.954 4.07578 11.8676C3.96249 11.7812 3.87486 11.6585 3.82424 11.5153L3.09321 9.4692C2.96809 9.1076 2.96896 8.70611 3.09566 8.3452C3.22236 7.98429 3.46552 7.69062 3.77641 7.52306L4.69873 6.99998V3.15384C4.69873 2.84782 4.8067 2.55434 4.99889 2.33795C5.19107 2.12157 5.45173 2 5.72353 2C5.99532 2 6.25598 2.12157 6.44817 2.33795C6.64036 2.55434 6.74832 2.84782 6.74832 3.15384V5.84614L8.9004 6.33075Z" fill="black" stroke="#000001" stroke-linecap="round" stroke-linejoin="round"/>
</svg>
