<svg width="24" height="24" viewBox="0 0 24 24" fill="none" xmlns="http://www.w3.org/2000/svg">
<g clip-path="url(#clip0_756_162)">
<path d="M10.495 0.505025C10.2216 0.231658 9.77839 0.231658 9.50503 0.505025L5.05025 4.9598C4.77689 5.23317 4.77689 5.67638 5.05025 5.94975C5.32362 6.22311 5.76684 6.22311 6.0402 5.94975L10 1.98995L13.9598 5.94975C14.2332 6.22311 14.6764 6.22311 14.9497 5.94975C15.2231 5.67638 15.2231 5.23316 14.9497 4.9598L10.495 0.505025ZM9.3 23C9.3 23.3866 9.6134 23.7 10 23.7C10.3866 23.7 10.7 23.3866 10.7 23L10 23L9.3 23ZM10 1L9.3 1L9.3 23L10 23L10.7 23L10.7 1L10 1Z" fill="black"/>
<path d="M23.495 14.495C23.7683 14.2216 23.7683 13.7784 23.495 13.505L19.0402 9.05025C18.7668 8.77689 18.3236 8.77689 18.0503 9.05025C17.7769 9.32362 17.7769 9.76684 18.0503 10.0402L22.0101 14L18.0503 17.9598C17.7769 18.2332 17.7769 18.6764 18.0503 18.9497C18.3236 19.2231 18.7668 19.2231 19.0402 18.9497L23.495 14.495ZM1 13.3C0.6134 13.3 0.3 13.6134 0.3 14C0.3 14.3866 0.6134 14.7 1 14.7V14V13.3ZM23 14V13.3L1 13.3V14V14.7L23 14.7V14Z" fill="black"/>
<rect x="4" y="16" width="4" height="4" rx="1" fill="black"/>
</g>
<defs>
<clipPath id="clip0_756_162">
<rect width="24" height="24" fill="white"/>
</clipPath>
</defs>
</svg>
