<svg width="24" height="24" viewBox="0 0 24 24" fill="none" xmlns="http://www.w3.org/2000/svg">
<g clip-path="url(#clip0_757_178)">
<rect width="24" height="24" fill="white"/>
<path d="M12.495 0.505025C12.2216 0.231658 11.7784 0.231658 11.505 0.505025L7.05025 4.9598C6.77689 5.23317 6.77689 5.67638 7.05025 5.94975C7.32362 6.22311 7.76684 6.22311 8.0402 5.94975L12 1.98995L15.9598 5.94975C16.2332 6.22311 16.6764 6.22311 16.9497 5.94975C17.2231 5.67638 17.2231 5.23316 16.9497 4.9598L12.495 0.505025ZM11.505 23.495C11.7784 23.7683 12.2216 23.7683 12.495 23.495L16.9497 19.0402C17.2231 18.7668 17.2231 18.3236 16.9497 18.0503C16.6764 17.7769 16.2332 17.7769 15.9598 18.0503L12 22.0101L8.0402 18.0503C7.76684 17.7769 7.32362 17.7769 7.05025 18.0503C6.77689 18.3236 6.77689 18.7668 7.05025 19.0402L11.505 23.495ZM12 1L11.3 1L11.3 23L12 23L12.7 23L12.7 1L12 1Z" fill="black"/>
<path d="M23.495 12.495C23.7683 12.2216 23.7683 11.7784 23.495 11.505L19.0402 7.05025C18.7668 6.77689 18.3236 6.77689 18.0503 7.05025C17.7769 7.32362 17.7769 7.76684 18.0503 8.0402L22.0101 12L18.0503 15.9598C17.7769 16.2332 17.7769 16.6764 18.0503 16.9497C18.3236 17.2231 18.7668 17.2231 19.0402 16.9497L23.495 12.495ZM0.505025 11.505C0.231658 11.7784 0.231658 12.2216 0.505025 12.495L4.9598 16.9497C5.23316 17.2231 5.67638 17.2231 5.94975 16.9497C6.22311 16.6764 6.22311 16.2332 5.94975 15.9598L1.98995 12L5.94975 8.0402C6.22311 7.76684 6.22311 7.32362 5.94975 7.05025C5.67638 6.77689 5.23316 6.77689 4.9598 7.05025L0.505025 11.505ZM23 12V11.3L1 11.3V12V12.7L23 12.7V12Z" fill="black"/>
</g>
<defs>
<clipPath id="clip0_757_178">
<rect width="24" height="24" fill="white"/>
</clipPath>
</defs>
</svg>
