<svg width="32" height="35" viewBox="0 0 32 35" fill="none" xmlns="http://www.w3.org/2000/svg">
<g filter="url(#filter0_d_16837_159)">
<path fill-rule="evenodd" clip-rule="evenodd" d="M12 2C10.3431 2 9 3.34315 9 5V12.1C6.71776 12.5633 5 14.581 5 17V20.0772C5 21.5362 5.45586 22.9587 6.30387 24.1459L9.28892 28.325C10.0398 29.3761 11.252 30 12.5439 30H20.259C21.6945 30 23.0198 29.2309 23.732 27.9846L26.0777 23.8796C26.6821 22.8219 27 21.6248 27 20.4066V17C27 14.3194 24.8906 12.1316 22.2412 12.0057C21.6917 11.3886 20.8913 11 20 11C19.4653 11 18.9634 11.1399 18.5286 11.385C17.9956 10.5521 17.0623 10 16 10C15.6494 10 15.3128 10.0602 15 10.1707V5C15 3.34315 13.6569 2 12 2Z" fill="white"/>
</g>
<path fill-rule="evenodd" clip-rule="evenodd" d="M12 2C10.3431 2 9 3.34315 9 5V12.1C6.71776 12.5633 5 14.581 5 17V20.0772C5 21.5362 5.45586 22.9587 6.30387 24.1459L9.28892 28.325C10.0398 29.3761 11.252 30 12.5439 30H20.259C21.6945 30 23.0198 29.2309 23.732 27.9846L26.0777 23.8796C26.6821 22.8219 27 21.6248 27 20.4066V17C27 14.3194 24.8906 12.1316 22.2412 12.0057C21.6917 11.3886 20.8913 11 20 11C19.4653 11 18.9634 11.1399 18.5286 11.385C17.9956 10.5521 17.0623 10 16 10C15.6494 10 15.3128 10.0602 15 10.1707V5C15 3.34315 13.6569 2 12 2ZM15 13C15 13.5523 14.5523 14 14 14C13.4477 14 13 13.5523 13 13V5C13 4.44772 12.5523 4 12 4C11.4477 4 11 4.44772 11 5V18C11 18.5523 10.5523 19 10 19C9.44772 19 9 18.5523 9 18V14.1707C7.83481 14.5825 7 15.6938 7 17V20.0772C7 21.1193 7.32562 22.1354 7.93133 22.9834L10.9164 27.1625C11.2918 27.6881 11.898 28 12.5439 28H20.259C20.9767 28 21.6394 27.6154 21.9955 26.9923L24.3412 22.8873C24.7729 22.1318 25 21.2767 25 20.4066V17C25 15.6938 24.1652 14.5825 23 14.1707V15C23 15.5523 22.5523 16 22 16C21.4477 16 21 15.5523 21 15V14C21 13.4477 20.5523 13 20 13C19.4477 13 19 13.4477 19 14C19 14.5523 18.5523 15 18 15C17.4477 15 17 14.5523 17 14V13C17 12.4477 16.5523 12 16 12C15.4477 12 15 12.4477 15 13Z" fill="#12131A"/>
<defs>
<filter id="filter0_d_16837_159" x="2" y="0.5" width="28" height="34" filterUnits="userSpaceOnUse" color-interpolation-filters="sRGB">
<feFlood flood-opacity="0" result="BackgroundImageFix"/>
<feColorMatrix in="SourceAlpha" type="matrix" values="0 0 0 0 0 0 0 0 0 0 0 0 0 0 0 0 0 0 127 0" result="hardAlpha"/>
<feOffset dy="1.5"/>
<feGaussianBlur stdDeviation="1.5"/>
<feComposite in2="hardAlpha" operator="out"/>
<feColorMatrix type="matrix" values="0 0 0 0 0.0705882 0 0 0 0 0.0745098 0 0 0 0 0.101961 0 0 0 0.25 0"/>
<feBlend mode="normal" in2="BackgroundImageFix" result="effect1_dropShadow_16837_159"/>
<feBlend mode="normal" in="SourceGraphic" in2="effect1_dropShadow_16837_159" result="shape"/>
</filter>
</defs>
</svg>
