<svg width="14" height="14" viewBox="0 0 14 14" fill="none" xmlns="http://www.w3.org/2000/svg">
<g clip-path="url(#clip0_2005_2)">
<path d="M6.34 9.096C6.276 8.768 6.288 8.472 6.376 8.208C6.472 7.944 6.612 7.708 6.796 7.5C6.988 7.284 7.196 7.088 7.42 6.912C7.652 6.728 7.872 6.548 8.08 6.372C8.288 6.196 8.46 6.016 8.596 5.832C8.732 5.64 8.8 5.432 8.8 5.208C8.8 4.928 8.732 4.68 8.596 4.464C8.46 4.248 8.26 4.08 7.996 3.96C7.732 3.832 7.392 3.768 6.976 3.768C6.568 3.768 6.172 3.86 5.788 4.044C5.412 4.22 5.052 4.492 4.708 4.86L4.06 4.26C4.46 3.836 4.904 3.5 5.392 3.252C5.88 2.996 6.448 2.868 7.096 2.868C7.664 2.868 8.152 2.96 8.56 3.144C8.976 3.328 9.296 3.588 9.52 3.924C9.752 4.252 9.868 4.648 9.868 5.112C9.868 5.416 9.8 5.684 9.664 5.916C9.528 6.148 9.352 6.36 9.136 6.552C8.928 6.744 8.708 6.932 8.476 7.116C8.244 7.292 8.028 7.476 7.828 7.668C7.636 7.86 7.488 8.072 7.384 8.304C7.288 8.536 7.268 8.8 7.324 9.096H6.34ZM6.856 12.06C6.64 12.06 6.456 11.988 6.304 11.844C6.152 11.7 6.076 11.508 6.076 11.268C6.076 11.028 6.152 10.836 6.304 10.692C6.456 10.54 6.64 10.464 6.856 10.464C7.064 10.464 7.244 10.54 7.396 10.692C7.548 10.836 7.624 11.028 7.624 11.268C7.624 11.508 7.548 11.7 7.396 11.844C7.244 11.988 7.064 12.06 6.856 12.06Z" fill="black"/>
</g>
<rect x="0.5" y="0.5" width="13" height="13" rx="6.5" stroke="black"/>
<defs>
<clipPath id="clip0_2005_2">
<rect width="14" height="14" rx="7" fill="white"/>
</clipPath>
</defs>
</svg>
